
<svg xmlns="http://www.w3.org/2000/svg" xmlns:xlink="http://www.w3.org/1999/xlink" viewBox="0 0 80 86" width="80" height="86" fill="none">
  <svg xmlns="http://www.w3.org/2000/svg" height="71" width="71" viewBox="0 0 24 24" fill="#fbfbfb" x="4.5" y="15" opacity="100%">
    <path d="M0 0h24v24H0z" fill="none"></path>
    <path d="m7 10 5 5 5-5z"></path>
  </svg>
  <g opacity="100%">
    <rect filter="url(#filter_dshadow_0_0_0_00000014)" x="15" y="0" width="50" height="50" fill="#fbfbfb" rx="25"></rect>
    <text x="56" y="30.5" font-family="Rubik" font-size="16" fill="#ff7900" letter-spacing="0" font-weight="700" font-style="normal">
      <tspan></tspan>
    </text>
    <svg xmlns="http://www.w3.org/2000/svg" viewBox="0 0 512 512" fill="#ff7900" x="24" y="13" width="24" height="24">
      <path d="M64 192c27.25 0 51.75-11.5 69.25-29.75c15 54 64 93.75 122.8 93.75c70.75 0 127.1-57.25 127.1-128s-57.25-128-127.1-128c-50.38 0-93.63 29.38-114.5 71.75C124.1 47.75 96 32 64 32c0 33.37 17.12 62.75 43.13 80C81.13 129.3 64 158.6 64 192zM208 96h95.1C321.7 96 336 110.3 336 128h-160C176 110.3 190.3 96 208 96zM337.8 306.9L256 416L174.2 306.9C93.36 321.6 32 392.2 32 477.3c0 19.14 15.52 34.67 34.66 34.67H445.3c19.14 0 34.66-15.52 34.66-34.67C480 392.2 418.6 321.6 337.8 306.9z"></path>
    </svg>
  </g>
  <defs>
    <filter id="filter_dshadow_0_0_0_00000014" color-interpolation-filters="sRGB" filterUnits="userSpaceOnUse">
      <feFlood flood-opacity="0" result="bg-fix"></feFlood>
      <feColorMatrix in="SourceAlpha" type="matrix" values="0 0 0 0 0 0 0 0 0 0 0 0 0 0 0 0 0 0 127 0" result="alpha"></feColorMatrix>
      <feOffset dx="0" dy="0"></feOffset>
      <feGaussianBlur stdDeviation="0"></feGaussianBlur>
      <feComposite in2="alpha" operator="out"></feComposite>
      <feColorMatrix type="matrix" values="0 0 0 0 0 0 0 0 0 0 0 0 0 0 0 0 0 0 0.08 0"></feColorMatrix>
      <feBlend mode="normal" in2="bg-fix" result="bg-fix-filter_dshadow_0_0_0_00000014"></feBlend>
      <feBlend in="SourceGraphic" in2="bg-fix-filter_dshadow_0_0_0_00000014" result="shape"></feBlend>
    </filter>
    <filter id="filter_dshadow_10_0_2_0000001a" color-interpolation-filters="sRGB" filterUnits="userSpaceOnUse">
      <feFlood flood-opacity="0" result="bg-fix"></feFlood>
      <feColorMatrix in="SourceAlpha" type="matrix" values="0 0 0 0 0 0 0 0 0 0 0 0 0 0 0 0 0 0 127 0" result="alpha"></feColorMatrix>
      <feOffset dx="0" dy="2"></feOffset>
      <feGaussianBlur stdDeviation="5"></feGaussianBlur>
      <feComposite in2="alpha" operator="out"></feComposite>
      <feColorMatrix type="matrix" values="0 0 0 0 0 0 0 0 0 0 0 0 0 0 0 0 0 0 0.1 0"></feColorMatrix>
      <feBlend mode="normal" in2="bg-fix" result="bg-fix-filter_dshadow_10_0_2_0000001a"></feBlend>
      <feBlend in="SourceGraphic" in2="bg-fix-filter_dshadow_10_0_2_0000001a" result="shape"></feBlend>
    </filter>
    <style>@import url(https://fonts.googleapis.com/css2?family=Rubik:ital,wght@0,300;0,400;0,500;0,600;0,700;0,800;0,900;1,300;1,400;1,500;1,600;1,700;1,800;1,900&amp;display=swap);
</style>
  </defs>
</svg>