<?xml version="1.0" encoding="UTF-8" standalone="no"?><!DOCTYPE svg PUBLIC "-//W3C//DTD SVG 1.1//EN" "http://www.w3.org/Graphics/SVG/1.1/DTD/svg11.dtd"><svg width="100%" height="100%" viewBox="0 0 1080 1080" version="1.1" xmlns="http://www.w3.org/2000/svg" xmlns:xlink="http://www.w3.org/1999/xlink" xml:space="preserve" xmlns:serif="http://www.serif.com/" style="fill-rule:evenodd;clip-rule:evenodd;stroke-linejoin:round;stroke-miterlimit:2;"><rect id="Plan-de-travail1" serif:id="Plan de travail1" x="0" y="0" width="1080" height="1080" style="fill:none;"/><path d="M1011.53,304.236c-0,-130.122 -105.642,-235.764 -235.764,-235.764l-471.528,0c-130.122,0 -235.764,105.642 -235.764,235.764l0,471.528c0,130.122 105.642,235.764 235.764,235.764l471.528,-0c130.122,-0 235.764,-105.642 235.764,-235.764l-0,-471.528Z" style="fill:#4f4f4f;"/><path d="M582.805,867.719c-24.747,20.798 -60.863,20.798 -85.61,-0c-80.53,-68.825 -246.549,-234.028 -246.549,-426.277c-0,-159.699 129.655,-263.354 289.354,-263.354c159.699,-0 289.354,103.655 289.354,263.354c0,192.249 -166.019,357.452 -246.549,426.277Z" style="fill:#fff;"/><g><path d="M403.388,480.073c3.913,14.028 -51.621,44.081 -59.985,13.952c-6.686,-24.084 15.813,-22.72 34.312,-22.023c12.607,0.474 24.088,2.386 25.673,8.071Z" style="fill:#4f4f4f;"/><path d="M408.956,370.506c3.912,-14.028 -51.622,-44.082 -59.986,-13.953c-6.686,24.084 15.813,22.72 34.313,22.024c12.606,-0.475 24.087,-2.386 25.673,-8.071Z" style="fill:#4f4f4f;"/><path d="M392.218,433.832c-2.292,8.297 -20.646,1.973 -43.553,1.913c-35.109,-0.091 -68.463,7.045 -66.2,-18.998c5.365,-61.748 113.63,3.048 109.753,17.085Z" style="fill:#4f4f4f;"/></g><path d="M510.167,283.39c1.755,-1.18 3.931,-1.555 5.98,-1.031c2.049,0.524 3.777,1.898 4.749,3.776c32.245,61.904 75.495,104.223 138.908,110.66c1.828,0.175 3.412,1.342 4.12,3.036c0.708,1.695 0.425,3.641 -0.735,5.065c-5.895,6.983 -8.41,14.529 -6.676,22.781c0.299,1.523 -0.136,3.099 -1.176,4.252c-1.04,1.154 -2.562,1.75 -4.108,1.609c-31.705,-2.66 -62.577,0.782 -92.447,11.699c-1.577,0.588 -2.751,1.931 -3.122,3.573c-0.371,1.641 0.11,3.359 1.28,4.569c109.495,114.074 73.84,281.032 -48.045,342.293c-1.862,0.925 -4.102,0.599 -5.623,-0.818c-1.521,-1.417 -2.004,-3.629 -1.212,-5.551c106.935,-260.9 -261.89,-324.352 8.107,-505.913Z" style="fill:#4f4f4f;"/></svg>